<?xml version="1.0" standalone="no"?>
<!DOCTYPE svg PUBLIC "-//W3C//DTD SVG 20010904//EN"
 "http://www.w3.org/TR/2001/REC-SVG-20010904/DTD/svg10.dtd">
<svg version="1.0" xmlns="http://www.w3.org/2000/svg"
 width="920.000000pt" height="920.000000pt" viewBox="0 0 920.000000 920.000000"
 preserveAspectRatio="xMidYMid meet">

<g transform="translate(0.000000,920.000000) scale(0.100000,-0.100000)"
fill="#000000" stroke="none">
<path d="M4244 8914 c-393 -310 -1556 -1231 -2249 -1780 -449 -356 -1476
-1169 -1718 -1359 -146 -115 -266 -213 -267 -217 0 -3 28 -28 63 -56 51 -41
800 -650 1027 -836 422 -347 1052 -856 1058 -856 4 1 27 42 52 92 59 120 232
395 269 428 3 3 26 30 51 60 325 400 791 710 1300 863 119 36 324 81 420 91
30 4 78 9 105 13 64 7 398 6 490 -2 205 -19 487 -83 684 -155 589 -217 1100
-652 1407 -1200 33 -58 68 -124 78 -147 11 -24 23 -43 28 -43 8 0 428 340
1053 850 126 103 800 652 998 813 54 44 96 83 95 88 -3 6 -192 157 -758 605
-285 225 -945 748 -1185 938 -126 100 -405 321 -620 491 -214 170 -430 341
-480 380 -49 39 -362 287 -695 550 -333 263 -657 521 -721 572 -64 51 -121 93
-126 93 -6 0 -167 -124 -359 -276z"/>
</g>
</svg>
