<?xml version="1.0" standalone="no"?>
<!DOCTYPE svg PUBLIC "-//W3C//DTD SVG 20010904//EN"
 "http://www.w3.org/TR/2001/REC-SVG-20010904/DTD/svg10.dtd">
<svg version="1.0" xmlns="http://www.w3.org/2000/svg"
 width="840.000000pt" height="859.000000pt" viewBox="0 0 840.000000 859.000000"
 preserveAspectRatio="xMidYMid meet">

<g transform="translate(0.000000,859.000000) scale(0.100000,-0.100000)"
fill="#000000" stroke="none">
<path d="M2075 8029 c-207 -11 -419 -47 -573 -98 -530 -174 -921 -612 -1041
-1165 -55 -254 -54 -201 -58 -2075 -2 -954 -2 -1745 2 -1758 3 -13 10 -23 15
-23 5 0 7 7 3 15 -3 9 -2 15 3 14 30 -5 47 5 60 37 12 29 19 35 42 33 47 -4
62 0 56 15 -3 8 -1 17 5 21 6 3 11 1 11 -5 0 -6 9 -2 21 8 11 11 19 28 17 37
-2 12 4 19 17 20 42 4 85 17 85 26 0 5 -6 9 -12 9 -7 1 -3 6 10 13 12 7 19 16
15 21 -4 4 5 3 20 -3 23 -9 29 -8 34 5 5 13 8 13 15 2 8 -10 9 -10 5 2 -2 8
-11 16 -20 18 -13 3 -15 -1 -10 -14 6 -16 5 -17 -9 -4 -13 13 -14 16 -2 23 8
4 22 7 31 5 11 -2 19 5 21 17 2 11 7 24 12 28 4 5 5 -3 3 -17 -5 -25 -4 -26
20 -17 20 8 30 7 41 -4 16 -17 30 -20 22 -6 -4 5 3 7 14 4 11 -3 22 -9 25 -13
3 -5 -3 -6 -13 -3 -13 3 -18 -2 -18 -17 0 -17 2 -19 11 -7 5 7 15 12 22 10 7
-3 10 8 8 31 -2 20 1 39 7 42 6 4 8 2 4 -4 -3 -6 -2 -13 3 -16 5 -4 8 -19 5
-34 -3 -18 -1 -23 4 -14 5 8 8 27 7 43 -2 24 0 27 11 18 8 -6 14 -8 14 -4 0 4
6 2 14 -4 15 -13 37 -11 48 3 8 12 40 17 33 6 -3 -5 -1 -11 5 -15 5 -3 10 -1
10 6 0 7 3 10 6 6 3 -3 3 -11 -1 -17 -5 -8 -13 -6 -26 6 -11 10 -19 12 -19 6
0 -22 4 -27 18 -24 9 2 11 -1 7 -10 -6 -10 -5 -11 6 0 16 15 39 16 39 1 0 -5
-4 -8 -9 -4 -17 10 -21 -12 -6 -25 8 -7 15 -9 15 -4 0 5 5 2 10 -6 6 -9 10
-10 10 -3 0 6 -4 14 -10 18 -5 3 -7 12 -3 20 3 9 -1 22 -8 31 -10 12 -9 18 7
32 10 9 13 10 6 2 -16 -19 -16 -35 1 -21 11 8 13 4 12 -22 -2 -42 4 -59 20
-53 8 3 16 -2 19 -10 9 -25 7 -27 -11 -13 -9 8 -14 9 -10 2 4 -6 4 -13 0 -16
-5 -2 -2 -2 4 -1 7 2 13 -2 13 -9 0 -7 5 -4 11 5 7 12 6 24 -1 39 -7 11 -9 23
-7 26 3 2 8 -5 12 -16 8 -26 22 -27 28 -3 4 16 5 16 6 -1 0 -10 5 -16 9 -13 4
2 8 -4 8 -14 0 -10 -3 -17 -7 -14 -4 2 -9 -1 -12 -8 -2 -7 -2 -2 0 10 5 28
-12 21 -20 -8 -3 -11 0 -20 6 -20 7 0 5 -5 -3 -10 -8 -5 -11 -10 -6 -10 5 0
18 7 28 17 17 15 18 15 18 -1 0 -9 4 -14 10 -11 5 3 10 -1 10 -9 0 -9 5 -16
11 -16 5 0 7 -6 3 -12 -4 -7 -3 -10 1 -5 10 8 15 48 6 43 -3 -2 -12 3 -20 11
-12 13 -11 14 7 8 17 -5 21 -3 16 9 -3 9 -9 14 -13 11 -4 -2 -8 2 -8 10 0 8 3
12 7 10 3 -2 5 427 4 953 -3 1219 6 1475 61 1748 64 316 191 560 400 769 212
213 455 340 777 405 231 48 336 52 1325 57 955 5 1310 -2 1549 -32 492 -61
873 -286 1116 -660 96 -147 182 -373 218 -575 40 -218 42 -291 47 -1325 7
-1388 -6 -1581 -118 -1902 -73 -209 -180 -381 -334 -537 -228 -232 -497 -363
-875 -425 -184 -31 -182 -30 -175 -41 4 -6 10 -8 15 -5 4 3 13 -2 20 -10 15
-18 34 -20 24 -3 -11 17 19 -3 33 -23 8 -11 20 -15 35 -11 16 4 20 2 16 -10
-4 -8 0 -15 8 -15 7 0 11 4 8 9 -3 4 0 8 5 8 6 0 11 -5 11 -11 0 -6 7 -8 16
-5 12 5 15 0 12 -19 -2 -19 4 -29 22 -39 14 -7 23 -19 22 -27 -2 -8 0 -11 4
-6 4 4 9 18 11 30 2 17 1 19 -7 7 -8 -13 -10 -12 -10 3 0 24 24 17 29 -8 2
-11 10 -30 18 -42 12 -18 19 -21 29 -12 10 8 12 6 9 -10 -2 -11 0 -23 6 -26 5
-4 9 0 9 7 0 10 3 9 9 -2 6 -8 7 -18 4 -24 -3 -5 -1 -6 5 -2 16 10 15 -7 0
-23 -7 -8 1 -5 17 5 29 18 30 18 15 -1 -14 -17 -13 -18 1 -13 13 5 16 2 12
-15 -4 -18 -3 -19 7 -7 9 13 10 12 6 -5 -5 -15 1 -25 23 -38 15 -9 32 -13 37
-9 4 4 2 -1 -5 -11 -12 -15 -12 -20 -1 -30 10 -9 11 -9 6 0 -4 7 -4 13 1 13 8
0 33 -47 33 -63 0 -5 -7 -6 -16 -3 -8 3 -12 2 -9 -4 3 -6 15 -10 25 -10 10 0
22 -5 26 -12 4 -7 3 -8 -4 -4 -7 4 -12 2 -12 -3 0 -6 9 -11 19 -11 28 0 37
-20 9 -21 -17 -1 -18 -3 -5 -6 9 -2 17 -9 17 -14 0 -5 0 -11 0 -14 0 -3 9 -14
20 -25 11 -11 20 -27 20 -35 0 -8 5 -15 11 -15 5 0 7 -4 4 -10 -3 -5 -3 -15 1
-21 4 -8 9 -7 15 2 7 11 9 10 9 -3 0 -10 5 -18 10 -18 21 0 10 -39 -12 -43
l-23 -4 22 -2 c27 -1 51 -33 47 -63 -1 -13 -3 -27 -3 -31 -1 -5 -5 -5 -11 -2
-6 3 -7 -1 -4 -9 8 -20 14 -20 31 1 13 17 14 16 10 -7 -3 -14 -1 -34 4 -45 8
-17 9 -16 6 8 -4 22 0 27 17 27 16 0 18 -2 7 -9 -10 -6 -12 -19 -8 -40 4 -20
3 -30 -3 -26 -6 3 -7 -1 -4 -10 5 -11 14 -14 33 -10 14 3 78 7 141 10 104 5
175 14 323 45 86 17 252 77 348 126 450 225 757 646 843 1154 35 210 36 266
36 2345 0 2267 1 2216 -59 2467 -70 293 -205 541 -407 743 -283 285 -592 424
-1059 477 -122 13 -3943 20 -4190 7z m-1077 -4754 c-3 -3 -9 2 -12 12 -6 14
-5 15 5 6 7 -7 10 -15 7 -18z m-81 -19 c2 -2 0 -7 -6 -11 -6 -3 -11 -1 -11 6
0 8 -5 6 -13 -5 -12 -16 -13 -16 -13 2 0 14 6 19 19 16 11 -2 22 -5 24 -8z
m57 -1 c-4 -8 -10 -12 -15 -9 -5 3 -9 0 -9 -5 0 -6 -7 -11 -16 -11 -27 0 3 28
43 39 1 1 0 -6 -3 -14z m256 -65 c0 -5 -2 -10 -4 -10 -3 0 -8 5 -11 10 -3 6
-1 10 4 10 6 0 11 -4 11 -10z m-633 -122 c-3 -8 -6 -5 -6 6 -1 11 2 17 5 13 3
-3 4 -12 1 -19z m33 2 c0 -5 -5 -10 -11 -10 -5 0 -7 5 -4 10 3 6 8 10 11 10 2
0 4 -4 4 -10z m-55 -21 c-3 -12 -7 -24 -10 -27 -3 -3 -3 5 -1 19 6 30 5 29 10
29 3 0 3 -10 1 -21z m-28 -31 c-3 -7 -5 -2 -5 12 0 14 2 19 5 13 2 -7 2 -19 0
-25z m-84 -65 c-7 -2 -19 -2 -25 0 -7 3 -2 5 12 5 14 0 19 -2 13 -5z m4989
-1397 c7 4 8 2 4 -5 -9 -13 -26 -5 -25 12 0 9 2 8 6 -1 2 -6 10 -9 15 -6z
m113 -76 c3 -5 -1 -10 -10 -10 -9 0 -13 5 -10 10 3 6 8 10 10 10 2 0 7 -4 10
-10z m84 -70 c0 -10 -3 -8 -9 5 -12 27 -12 43 0 25 5 -8 9 -22 9 -30z m155
-149 c4 -5 -1 -8 -9 -7 -21 3 -31 16 -12 16 9 0 18 -4 21 -9z m251 -461 c3 -5
1 -10 -4 -10 -6 0 -11 5 -11 10 0 6 2 10 4 10 3 0 8 -4 11 -10z m42 -85 c0 -8
-4 -12 -9 -9 -5 3 -6 10 -3 15 9 13 12 11 12 -6z"/>
<path d="M3470 6589 c-661 -9 -813 -27 -1032 -119 -292 -124 -492 -393 -552
-740 -38 -221 -41 -320 -40 -1320 1 -957 9 -1276 32 -1315 11 -18 12 -17 6 7
-4 19 1 36 17 59 20 29 21 32 6 41 -10 5 -17 17 -17 26 0 15 -2 15 -10 2 -6
-9 -10 -10 -10 -3 0 20 20 25 27 6 6 -17 22 -33 33 -33 3 0 5 16 4 35 -1 19 2
35 6 35 14 0 21 -18 10 -25 -13 -8 -13 -25 0 -25 6 0 10 7 10 15 0 8 7 15 15
15 18 0 20 16 3 26 -7 4 -8 3 -4 -4 4 -7 2 -12 -3 -12 -6 0 -11 4 -11 9 0 18
21 23 38 10 14 -11 15 -11 5 0 -6 7 -9 20 -6 29 5 11 3 13 -7 7 -8 -5 -11 -4
-6 3 3 5 2 12 -4 14 -6 2 -1 9 10 16 12 7 20 8 20 2 0 -5 -5 -10 -10 -10 -6 0
-5 -8 2 -19 9 -15 16 -17 30 -10 10 5 18 15 17 22 0 9 -2 9 -6 0 -10 -27 -21
-11 -20 27 1 22 6 40 11 40 4 0 6 -6 3 -13 -3 -8 -1 -20 4 -28 7 -11 9 -11 9
4 0 10 7 20 15 23 8 4 15 11 15 16 0 6 -7 7 -16 4 -9 -3 -12 -2 -9 5 4 6 13 8
20 5 7 -2 16 2 19 10 3 8 15 14 26 14 12 0 18 4 15 10 -3 6 1 7 9 4 9 -3 16
-1 16 5 0 6 -4 11 -10 11 -5 0 -2 8 8 18 11 12 20 14 24 8 5 -7 8 -3 9 9 l0
20 9 -20 c14 -32 11 -45 -7 -44 -11 0 -13 3 -5 6 17 7 15 20 -3 20 -9 0 -14
-9 -13 -23 2 -14 7 -20 16 -17 7 3 20 -3 28 -13 15 -19 15 -19 6 0 -10 21 -5
55 9 57 5 1 15 2 22 3 7 1 11 12 9 26 -2 14 1 20 5 14 10 -14 39 -24 47 -17 3
4 1 12 -6 20 -8 10 -8 17 -1 24 8 8 13 7 18 -2 6 -8 4 -10 -5 -4 -8 5 -11 3
-8 -6 5 -15 59 -48 70 -43 3 2 4 -6 1 -17 -5 -16 -2 -20 8 -17 8 3 13 12 11
19 -1 8 4 5 13 -5 13 -18 19 -15 16 6 0 4 7 4 16 1 12 -5 14 -3 8 7 -6 9 -4
11 4 6 7 -5 10 -14 7 -22 -3 -8 -1 -14 4 -14 6 0 10 6 10 14 0 9 8 12 25 8 21
-3 24 -9 19 -26 -6 -21 -6 -21 9 -1 9 11 20 21 26 21 6 1 16 2 22 3 5 0 8 5 4
10 -3 6 4 8 16 6 28 -6 37 -15 15 -15 -10 0 -14 -5 -11 -11 4 -6 14 -8 22 -5
21 8 39 -4 22 -15 -11 -7 -10 -9 4 -9 9 0 17 -6 17 -12 0 -8 7 -5 15 6 8 11
15 15 15 9 0 -7 -7 -19 -16 -27 -14 -15 -14 -16 0 -16 9 0 19 0 22 1 4 0 11
-5 16 -13 7 -9 8 -8 5 7 -3 11 -8 28 -12 38 -5 12 -2 17 9 17 9 0 15 -3 15 -7
-4 -26 5 -33 39 -34 l37 -2 -40 -7 c-30 -5 -34 -8 -15 -10 14 -1 28 -2 33 -1
4 0 6 -4 5 -11 -2 -7 2 -12 9 -13 6 0 14 -3 18 -7 4 -4 14 -4 23 -1 11 5 13 3
7 -7 -6 -10 -2 -11 19 -6 26 6 37 -8 14 -18 -7 -3 -1 -3 13 0 26 5 48 -10 34
-24 -3 -3 -10 0 -14 7 -6 8 -11 9 -15 3 -10 -16 5 -21 59 -19 50 1 50 1 49
-31 -1 -17 2 -29 7 -26 4 2 6 11 2 19 -10 27 12 16 30 -15 11 -18 14 -30 7
-30 -6 0 -8 -5 -5 -10 4 -6 12 -5 21 4 16 17 19 30 4 21 -5 -3 -10 -1 -10 4 0
6 10 10 23 8 15 -1 21 3 19 13 -2 8 0 11 5 7 4 -5 9 -13 9 -18 1 -5 2 -14 3
-20 0 -5 6 -7 13 -3 7 4 8 3 4 -5 -4 -6 -12 -9 -17 -6 -5 4 -9 1 -9 -5 0 -7 6
-10 13 -7 6 2 21 -3 31 -12 11 -9 16 -11 13 -4 -4 6 -3 14 3 18 5 3 11 1 11
-4 1 -6 2 -16 3 -22 2 -21 51 -50 88 -52 20 -1 34 -5 31 -10 -2 -4 -9 -4 -15
-1 -7 4 -8 2 -4 -5 4 -6 11 -9 16 -6 4 3 11 -1 13 -7 3 -8 6 -6 6 5 1 9 6 17
12 17 5 0 7 -5 4 -10 -6 -9 8 -14 27 -11 5 0 13 -8 20 -18 7 -11 18 -17 27
-13 14 5 14 4 1 -13 -14 -17 -14 -17 8 -4 19 12 24 12 31 0 6 -9 11 -10 15 -2
4 6 -1 14 -11 18 -10 3 -26 13 -35 21 -10 8 -18 12 -18 8 0 -5 -23 9 -51 29
-37 26 -54 34 -62 26 -6 -6 -22 -11 -36 -11 -13 0 -21 3 -18 7 4 3 1 13 -5 22
-8 10 -4 9 10 -3 17 -14 22 -16 22 -5 0 11 2 11 10 -1 5 -8 10 -10 10 -3 0 6
-30 35 -67 64 -256 199 -442 497 -514 824 -26 115 -35 332 -20 456 57 474 349
892 774 1106 96 48 284 108 396 127 124 21 349 21 472 0 445 -76 835 -370
1034 -779 75 -157 113 -294 136 -491 29 -263 -47 -603 -188 -838 -225 -373
-575 -613 -1003 -685 -163 -28 -365 -26 -462 5 -10 3 -18 -2 -21 -13 -4 -17
-5 -17 -6 1 -1 14 -7 17 -26 14 -13 -3 -26 0 -28 6 -3 8 -8 8 -16 1 -8 -8 -5
-15 9 -28 17 -14 20 -14 20 -2 0 8 7 15 15 15 18 0 20 -16 3 -24 -7 -3 2 -3
21 0 19 3 39 8 44 11 6 3 7 1 3 -5 -8 -13 21 -23 50 -18 13 3 21 -1 22 -10 1
-8 3 -20 4 -27 1 -9 11 -13 29 -11 22 3 27 0 24 -14 -3 -19 30 -28 40 -11 4 5
12 9 18 9 7 0 6 -4 -3 -10 -12 -8 -11 -10 7 -10 12 0 23 8 26 18 4 13 5 11 6
-5 1 -26 26 -31 38 -8 7 12 11 11 21 -6 8 -12 9 -18 4 -15 -6 3 -13 -1 -16
-10 -9 -23 -7 -31 3 -15 6 8 14 10 22 5 19 -12 40 -14 34 -4 -3 5 -1 11 4 14
10 7 9 -13 -1 -29 -3 -6 0 -19 8 -30 15 -21 17 -15 14 41 -1 18 2 34 7 37 4 3
8 -20 7 -51 0 -31 1 -51 4 -44 2 6 9 9 14 6 6 -4 8 -3 5 2 -3 6 5 10 18 10 13
0 23 -5 22 -10 -1 -6 4 -10 11 -8 8 1 11 -2 7 -8 -3 -5 0 -20 7 -32 7 -13 11
-27 9 -33 -1 -5 1 -6 6 -2 8 9 9 12 12 50 2 17 4 19 9 6 4 -9 15 -15 25 -13
18 2 18 2 1 -17 -9 -10 -14 -22 -11 -26 4 -3 7 -1 7 5 0 6 8 9 18 6 13 -4 14
-3 4 4 -11 7 -11 10 2 15 9 4 15 3 15 -1 -4 -22 3 -33 15 -29 8 3 22 -1 33 -8
14 -11 16 -17 7 -32 -9 -15 -8 -23 2 -37 7 -11 11 -22 9 -26 -2 -4 2 -7 10 -7
11 0 9 7 -6 29 -11 15 -19 28 -17 29 2 0 15 2 30 3 28 2 44 -23 27 -43 -5 -6
-6 -9 -3 -6 4 3 13 0 21 -6 9 -9 13 -8 13 0 0 6 -6 11 -12 11 -9 0 -8 4 2 10
10 6 11 10 3 10 -7 0 -13 5 -13 11 0 8 4 8 13 1 6 -6 15 -10 19 -9 3 1 10 -2
15 -6 4 -5 3 -8 -2 -7 -25 5 -28 -1 -7 -16 16 -11 21 -22 17 -37 -5 -17 -4
-19 4 -7 8 12 13 11 31 -5 12 -11 24 -19 26 -17 14 8 23 0 12 -13 -11 -12 -16
-11 -34 11 -15 18 -21 21 -21 10 0 -9 3 -16 7 -16 4 0 7 -6 7 -12 0 -7 4 -22
9 -32 5 -14 4 -17 -4 -12 -17 10 -15 1 2 -13 12 -10 14 -7 11 18 -4 28 -2 30
15 21 11 -6 20 -15 20 -21 0 -6 -5 -7 -11 -3 -8 5 -8 1 0 -14 8 -14 18 -19 35
-16 31 5 56 -21 26 -29 -11 -3 -20 -1 -20 3 0 10 -27 7 -37 -5 -4 -4 -2 -5 6
0 11 6 13 1 9 -22 -2 -18 0 -30 7 -30 7 0 10 11 7 25 -3 17 -1 23 7 18 6 -4 9
-12 6 -17 -9 -14 2 -11 18 6 13 13 16 12 22 -2 3 -10 3 -14 -1 -10 -8 8 -34
-11 -34 -25 0 -6 7 -5 15 2 13 11 14 10 9 -4 -5 -13 -2 -15 12 -10 17 6 17 5
-1 -10 -11 -10 -15 -16 -10 -13 6 2 18 -4 28 -15 14 -15 14 -18 2 -18 -8 0
-15 -5 -15 -11 0 -5 5 -7 10 -4 6 3 10 -1 10 -9 0 -8 5 -18 12 -22 7 -5 8 -2
3 7 -6 11 -5 11 5 2 10 -9 10 -15 -2 -27 -9 -8 -19 -12 -22 -8 -4 3 -4 -2 0
-12 6 -16 8 -17 16 -2 5 9 13 14 19 11 5 -4 12 1 15 10 9 23 24 -1 24 -38 l0
-28 218 5 c331 7 505 36 694 116 129 55 259 158 353 280 107 139 181 351 204
585 22 221 34 856 27 1510 -8 906 -18 1061 -81 1280 -90 309 -304 529 -612
631 -119 39 -278 62 -503 73 -273 14 -1092 19 -1680 10z m2226 -483 c65 -30
125 -89 161 -158 23 -45 27 -65 28 -138 0 -72 -4 -94 -26 -141 -49 -103 -130
-166 -246 -190 -137 -28 -284 48 -355 185 -16 29 -23 65 -26 128 -4 76 -1 92
20 140 81 177 273 252 444 174z m-3295 -2549 c-10 -9 -11 -8 -5 6 3 10 9 15
12 12 3 -3 0 -11 -7 -18z m99 -13 c0 -8 -19 -13 -24 -6 -3 5 1 9 9 9 8 0 15
-2 15 -3z m-30 -18 c0 -7 -40 -14 -44 -7 -3 4 6 8 20 9 13 1 24 0 24 -2z m37
-10 c0 -8 -6 -12 -15 -9 -11 5 -11 7 0 14 7 5 13 9 14 9 0 0 1 -6 1 -14z m60
2 c0 -7 -11 -13 -24 -13 -29 0 -29 3 0 15 12 5 22 9 23 9 0 1 1 -5 1 -11z
m100 -4 c-3 -3 -12 -4 -19 -1 -8 3 -5 6 6 6 11 1 17 -2 13 -5z m-709 -214 c-7
-10 -14 -18 -15 -16 -6 6 9 36 18 36 5 0 4 -9 -3 -20z m-51 -32 c-3 -8 -6 -5
-6 6 -1 11 2 17 5 13 3 -3 4 -12 1 -19z m1314 -105 c13 -16 12 -17 -3 -4 -17
13 -22 21 -14 21 2 0 10 -8 17 -17z m761 -282 c8 11 9 11 6 1 -4 -16 -22 -18
-24 -2 -2 7 -1 6 3 -1 4 -8 8 -7 15 2z m45 -36 c-15 -16 -28 -10 -21 10 3 7
12 11 19 8 11 -4 12 -8 2 -18z m150 -57 c-3 -8 -6 -5 -6 6 -1 11 2 17 5 13 3
-3 4 -12 1 -19z m88 -17 c3 -5 2 -12 -3 -15 -5 -3 -9 1 -9 9 0 17 3 19 12 6z
m305 -85 c0 -2 -7 -7 -16 -10 -8 -3 -12 -2 -9 4 6 10 25 14 25 6z m17 -18 c-3
-8 -6 -5 -6 6 -1 11 2 17 5 13 3 -3 4 -12 1 -19z m-57 -52 c0 -2 -7 -6 -15
-10 -8 -3 -15 -1 -15 4 0 6 7 10 15 10 8 0 15 -2 15 -4z m140 -10 c0 -2 -7 -7
-16 -10 -8 -3 -12 -2 -9 4 6 10 25 14 25 6z m100 -60 c-7 -7 -13 -7 -20 0 -6
6 -3 10 10 10 13 0 16 -4 10 -10z m-57 -150 c-3 -4 -9 -2 -14 5 -13 22 -11 31
5 17 8 -7 12 -17 9 -22z m68 -139 c-10 -9 -11 -8 -5 6 3 10 9 15 12 12 3 -3 0
-11 -7 -18z m63 -45 c3 -5 -1 -9 -9 -9 -8 0 -15 4 -15 9 0 4 4 8 9 8 6 0 12
-4 15 -8z m55 -42 c0 -10 -3 -8 -9 5 -5 12 -9 14 -9 6 -1 -8 -3 -12 -6 -9 -3
3 -2 13 1 22 5 14 9 15 15 4 5 -7 8 -20 8 -28z"/>
<path d="M3993 5249 c-211 -18 -447 -140 -585 -301 -324 -379 -300 -926 54
-1264 259 -248 636 -322 971 -190 158 62 321 191 417 331 48 70 106 200 131
295 32 121 33 319 1 440 -69 261 -245 481 -477 597 -80 41 -212 82 -283 88
-116 11 -139 12 -229 4z"/>
<path d="M2316 3513 c-3 -4 -6 -13 -6 -22 0 -13 2 -13 9 -3 10 17 22 14 38 -7
13 -17 18 -3 5 15 -9 14 -38 24 -46 17z"/>
<path d="M2286 3495 c4 -8 8 -15 10 -15 2 0 4 7 4 15 0 8 -4 15 -10 15 -5 0
-7 -7 -4 -15z"/>
<path d="M2236 3481 c-5 -7 -3 -18 3 -24 14 -14 20 -6 11 17 -5 15 -9 16 -14
7z"/>
<path d="M2096 3415 c-3 -8 -1 -15 4 -15 6 0 10 7 10 15 0 8 -2 15 -4 15 -2 0
-6 -7 -10 -15z"/>
<path d="M1030 3219 c6 -10 13 -19 16 -19 3 0 2 5 -2 11 -4 7 0 9 14 5 12 -4
23 -2 28 5 4 8 3 9 -4 5 -7 -4 -18 -4 -24 1 -26 16 -38 12 -28 -8z"/>
<path d="M3105 3230 c-3 -5 -1 -10 4 -10 6 0 11 5 11 10 0 6 -2 10 -4 10 -3 0
-8 -4 -11 -10z"/>
<path d="M1978 3213 c7 -3 16 -2 19 1 4 3 -2 6 -13 5 -11 0 -14 -3 -6 -6z"/>
<path d="M1100 3190 c0 -5 5 -10 11 -10 5 0 7 5 4 10 -3 6 -8 10 -11 10 -2 0
-4 -4 -4 -10z"/>
<path d="M3150 3176 c0 -2 8 -10 18 -17 15 -13 16 -12 3 4 -13 16 -21 21 -21
13z"/>
<path d="M1096 3162 c-2 -4 -1 -14 4 -22 7 -11 9 -9 7 8 -1 24 -3 26 -11 14z"/>
<path d="M755 3150 c-3 -6 1 -7 9 -4 18 7 21 14 7 14 -6 0 -13 -4 -16 -10z"/>
<path d="M1898 3113 c7 -3 16 -2 19 1 4 3 -2 6 -13 5 -11 0 -14 -3 -6 -6z"/>
<path d="M647 3079 c6 -23 9 -24 16 -5 3 8 0 17 -7 19 -10 4 -12 -1 -9 -14z"/>
<path d="M1290 3081 c0 -10 29 -36 34 -30 1 2 -6 12 -16 22 -10 9 -18 13 -18
8z"/>
<path d="M3510 3026 c0 -17 2 -18 10 -6 7 11 10 11 10 2 0 -7 5 -10 10 -7 6 3
10 1 10 -5 0 -6 4 -9 9 -6 5 4 12 0 14 -6 4 -9 6 -8 6 2 1 9 -15 23 -34 32
-34 15 -35 15 -35 -6z"/>
<path d="M3610 2998 c14 -7 31 -19 38 -28 8 -8 11 -9 7 -2 -3 6 -1 12 4 12 6
0 11 -5 11 -12 0 -6 3 -8 6 -5 4 3 15 2 25 -4 11 -5 19 -6 19 -1 0 9 -62 35
-110 46 l-25 6 25 -12z"/>
<path d="M500 2985 c0 -8 5 -15 11 -15 5 0 8 4 5 9 -4 5 0 12 6 14 8 3 6 6 -4
6 -10 1 -18 -6 -18 -14z"/>
<path d="M3785 2890 c-3 -6 1 -7 9 -4 18 7 21 14 7 14 -6 0 -13 -4 -16 -10z"/>
<path d="M3917 2879 c4 -13 8 -18 11 -10 2 7 -1 18 -6 23 -8 8 -9 4 -5 -13z"/>
<path d="M4110 2804 c-17 -9 -20 -14 -9 -14 9 0 22 7 29 15 15 18 13 18 -20
-1z"/>
<path d="M4273 2712 c0 -10 7 -19 14 -19 17 0 17 12 -1 27 -12 9 -15 8 -13 -8z"/>
<path d="M4440 2630 c0 -6 7 -10 15 -10 8 0 15 2 15 4 0 2 -7 6 -15 10 -8 3
-15 1 -15 -4z"/>
<path d="M4421 2614 c0 -11 3 -14 6 -6 3 7 2 16 -1 19 -3 4 -6 -2 -5 -13z"/>
<path d="M4550 2496 c0 -2 7 -7 16 -10 8 -3 12 -2 9 4 -6 10 -25 14 -25 6z"/>
<path d="M4724 2239 c-4 -7 -3 -9 4 -5 5 3 13 0 15 -6 4 -9 6 -10 6 -1 1 17
-16 25 -25 12z"/>
<path d="M4829 2153 c-1 -5 -1 -12 0 -17 1 -5 -5 -6 -14 -3 -22 9 -19 -6 5
-21 19 -11 20 -10 18 18 -2 28 -7 39 -9 23z"/>
<path d="M5641 1364 c0 -11 3 -14 6 -6 3 7 2 16 -1 19 -3 4 -6 -2 -5 -13z"/>
<path d="M5663 1335 c0 -8 4 -12 9 -9 5 3 6 10 3 15 -9 13 -12 11 -12 -6z"/>
<path d="M5726 1267 c3 -10 9 -15 12 -12 3 3 0 11 -7 18 -10 9 -11 8 -5 -6z"/>
<path d="M5808 1173 c7 -3 16 -2 19 1 4 3 -2 6 -13 5 -11 0 -14 -3 -6 -6z"/>
<path d="M5980 840 c0 -5 7 -7 15 -4 8 4 15 8 15 10 0 2 -7 4 -15 4 -8 0 -15
-4 -15 -10z"/>
<path d="M6000 819 c0 -5 5 -7 10 -4 6 3 10 8 10 11 0 2 -4 4 -10 4 -5 0 -10
-5 -10 -11z"/>
</g>
</svg>
