<?xml version="1.0" standalone="no"?>
<!DOCTYPE svg PUBLIC "-//W3C//DTD SVG 20010904//EN"
 "http://www.w3.org/TR/2001/REC-SVG-20010904/DTD/svg10.dtd">
<svg version="1.0" xmlns="http://www.w3.org/2000/svg"
 width="860.000000pt" height="692.000000pt" viewBox="0 0 860.000000 692.000000"
 preserveAspectRatio="xMidYMid meet">

<g transform="translate(0.000000,692.000000) scale(0.100000,-0.100000)"
fill="#000000" stroke="none">
<path d="M1545 6457 c-151 -57 -256 -179 -285 -332 -8 -44 -10 -771 -8 -2720
3 -2548 4 -2662 21 -2710 45 -122 158 -234 279 -274 l64 -21 2700 2 2700 3 75
37 c93 46 168 122 212 215 l32 68 3 2698 2 2697 -21 62 c-38 114 -122 207
-237 261 l-67 32 -2705 2 -2705 2 -60 -22z m1190 -832 c90 -23 159 -61 225
-121 107 -99 157 -206 167 -354 19 -293 -220 -550 -511 -550 -298 1 -526 224
-528 518 -1 236 157 445 383 506 72 19 191 20 264 1z m2925 -1380 c392 -79
618 -303 715 -709 57 -237 58 -253 62 -1283 l4 -953 -450 0 -450 0 -4 862 c-3
775 -5 871 -21 938 -22 95 -73 206 -119 257 -70 77 -192 123 -327 123 -305 0
-473 -152 -525 -473 -12 -76 -15 -230 -15 -899 l0 -808 -450 0 -450 0 0 1450
0 1450 430 0 430 0 0 -195 c0 -107 4 -195 9 -195 4 0 25 26 46 57 132 199 355
338 620 388 99 18 383 13 495 -10z m-2600 -1495 l0 -1450 -450 0 -450 0 0
1450 0 1450 450 0 450 0 0 -1450z"/>
</g>
</svg>
