<?xml version="1.0" standalone="no"?>
<!DOCTYPE svg PUBLIC "-//W3C//DTD SVG 20010904//EN"
 "http://www.w3.org/TR/2001/REC-SVG-20010904/DTD/svg10.dtd">
<svg version="1.0" xmlns="http://www.w3.org/2000/svg"
 width="3840.000000pt" height="2160.000000pt" viewBox="0 0 3840.000000 2160.000000"
 preserveAspectRatio="xMidYMid meet">

<g transform="translate(0.000000,2160.000000) scale(0.100000,-0.100000)"
fill="#000000" stroke="none">
<path d="M7652 21273 c8 -10 1982 -2591 4387 -5736 2678 -3502 4369 -5722
4365 -5729 -8 -12 -8232 -9417 -8282 -9471 l-26 -27 1781 0 1780 0 3208 3665
c3069 3507 3209 3665 3226 3648 16 -17 995 -1296 4339 -5671 l1255 -1641 3578
-1 c1967 0 3577 3 3577 6 0 3 -2054 2721 -4565 6041 -2511 3319 -4567 6039
-4568 6043 -1 4 1740 1998 3868 4431 2129 2432 3876 4431 3883 4441 13 17 -48
18 -1765 17 l-1778 0 -2930 -3351 -2930 -3350 -25 30 c-14 17 -1154 1525
-2535 3351 l-2510 3320 -3674 1 c-3498 0 -3673 -1 -3659 -17z m6623 -2481
c198 -262 913 -1208 1589 -2102 676 -894 1787 -2363 2470 -3265 682 -902 1762
-2331 2401 -3175 2676 -3538 3679 -4865 4753 -6285 624 -825 1139 -1506 1144
-1512 8 -10 -189 -13 -978 -12 l-989 0 -214 282 c-118 155 -939 1229 -1825
2387 -885 1158 -3680 4812 -6211 8120 -2530 3308 -4604 6021 -4608 6028 -7 9
206 12 1050 12 l1058 -1 360 -477z"/>
</g>
</svg>
