<?xml version="1.0" standalone="no"?>
<!DOCTYPE svg PUBLIC "-//W3C//DTD SVG 20010904//EN"
 "http://www.w3.org/TR/2001/REC-SVG-20010904/DTD/svg10.dtd">
<svg version="1.0" xmlns="http://www.w3.org/2000/svg"
 width="840.000000pt" height="859.000000pt" viewBox="0 0 840.000000 859.000000"
 preserveAspectRatio="xMidYMid meet">

<g transform="translate(0.000000,859.000000) scale(0.100000,-0.100000)"
fill="#000000" stroke="none">
<path d="M4785 5799 c-121 -5 -348 -13 -505 -19 -570 -21 -647 -29 -739 -77
-24 -13 -48 -23 -52 -23 -24 0 -143 -120 -183 -185 -32 -51 -61 -132 -70 -195
-13 -84 -17 -123 -31 -245 -23 -203 -25 -225 -35 -475 -10 -253 -3 -770 11
-808 5 -13 9 -51 9 -85 0 -34 5 -93 11 -132 6 -38 15 -104 19 -145 19 -158 40
-252 61 -270 3 -3 11 -20 19 -38 7 -19 26 -46 42 -62 15 -16 28 -33 28 -39 0
-6 3 -11 8 -11 4 0 25 -16 47 -35 22 -19 43 -35 48 -35 4 0 24 -10 45 -23 75
-46 155 -62 347 -72 55 -3 192 -10 305 -16 632 -35 1865 -35 2495 0 116 6 255
13 310 15 279 11 375 45 508 178 42 43 77 85 77 93 0 8 5 15 10 15 6 0 10 6
10 13 0 6 6 23 13 37 29 57 39 110 68 355 17 143 48 654 48 780 0 124 -31 617
-49 775 -25 223 -37 289 -66 357 -8 17 -14 36 -14 42 0 6 -4 11 -10 11 -5 0
-10 7 -10 15 0 8 -3 15 -8 15 -4 0 -15 15 -25 33 -27 49 -145 137 -237 175
-91 38 -227 47 -1126 77 -481 16 -1018 17 -1379 4z m-290 -604 c0 -71 -1 -136
-3 -142 -3 -10 -45 -13 -163 -13 l-159 0 0 -850 0 -850 -150 0 -150 0 0 850 0
849 -157 3 -158 3 -3 143 -3 142 473 -2 473 -3 0 -130z m1315 -182 l0 -318 29
33 c16 17 34 32 40 32 6 0 11 4 11 8 0 5 17 17 38 28 20 10 40 24 44 29 11 15
200 13 206 -2 2 -7 8 -13 14 -13 13 0 68 -56 68 -69 0 -6 4 -11 9 -11 5 0 13
-15 16 -32 4 -18 12 -39 19 -47 8 -10 11 -167 11 -555 0 -513 -1 -544 -20
-606 -21 -67 -87 -150 -119 -150 -9 0 -16 -4 -16 -10 0 -6 -35 -10 -85 -10
-47 0 -85 3 -85 8 0 4 -19 15 -43 25 -23 9 -63 37 -89 62 l-48 45 0 -60 0 -61
-142 3 -143 3 -3 970 c-1 534 0 980 3 993 5 22 8 22 145 22 l140 0 0 -317z
m1253 -191 c7 -5 23 -12 37 -15 14 -4 38 -18 54 -32 16 -14 33 -25 37 -25 13
0 89 -105 89 -123 0 -10 4 -17 8 -17 21 0 35 -127 39 -344 3 -179 1 -231 -9
-238 -7 -4 -127 -8 -266 -8 l-254 0 4 -187 c2 -138 6 -187 16 -191 6 -2 12
-10 12 -17 0 -24 51 -55 91 -55 91 0 119 40 119 168 0 50 3 97 6 106 5 14 28
16 145 16 l139 0 0 -115 c0 -63 -4 -124 -9 -137 -45 -117 -48 -121 -103 -176
-55 -56 -82 -73 -150 -97 -47 -16 -243 -21 -252 -6 -3 4 -19 11 -36 14 -68 14
-175 108 -206 182 -28 68 -31 78 -43 133 -15 73 -15 765 0 846 12 62 19 85 48
144 19 40 83 112 99 112 7 0 12 3 12 8 0 10 58 42 76 42 8 0 14 4 14 9 0 21
258 23 283 3z m-2267 -6 c12 -12 14 -108 14 -617 0 -561 1 -603 18 -615 41
-31 96 -10 168 66 l24 25 0 563 c0 475 2 566 14 578 19 18 246 20 264 2 9 -9
12 -188 12 -745 l0 -733 -134 0 c-96 0 -137 4 -144 13 -6 7 -12 37 -14 67 l-3
54 -27 -27 c-15 -15 -30 -27 -33 -27 -3 0 -16 -10 -28 -23 -12 -13 -40 -31
-62 -41 -22 -9 -48 -21 -57 -26 -10 -6 -47 -10 -83 -10 -108 0 -167 50 -188
159 -15 83 -21 1319 -6 1337 17 20 244 20 265 0z"/>
<path d="M5868 4577 c-9 -7 -26 -19 -37 -27 -21 -14 -21 -19 -21 -467 0 -440
1 -454 20 -473 11 -11 26 -20 34 -20 8 0 18 -4 21 -10 8 -13 68 -13 97 1 13 5
31 29 41 52 15 38 17 85 17 450 0 439 -1 444 -53 490 -23 20 -93 23 -119 4z"/>
<path d="M6845 4556 c-37 -40 -45 -73 -45 -203 l0 -93 131 0 130 0 -4 93 c-5
103 -20 180 -36 185 -6 2 -11 9 -11 16 0 19 -45 36 -92 36 -33 0 -46 -6 -73
-34z"/>
<path d="M62 5311 c-3 -7 0 -22 6 -32 7 -10 12 -28 12 -38 0 -11 5 -23 10 -26
6 -3 10 -13 10 -22 0 -8 6 -29 14 -46 7 -18 22 -59 32 -92 10 -33 22 -64 26
-69 4 -6 8 -18 8 -28 0 -10 4 -26 9 -36 5 -9 17 -39 26 -67 9 -27 20 -59 25
-70 5 -11 16 -45 26 -75 9 -30 20 -64 24 -75 4 -11 15 -47 25 -80 9 -33 21
-69 25 -80 4 -11 15 -47 24 -80 69 -251 66 -220 66 -656 l0 -399 139 0 c117 0
140 2 145 16 3 9 6 190 6 402 0 213 4 403 9 422 12 47 51 180 61 205 4 11 15
45 23 75 9 30 28 91 42 135 14 44 25 87 25 97 0 10 5 18 10 18 6 0 10 10 10
23 0 25 32 133 43 143 4 4 7 16 7 27 0 17 21 90 41 142 4 11 10 31 13 45 9 46
31 115 37 120 6 5 17 54 22 95 2 19 -4 20 -141 20 l-143 0 -14 -49 c-8 -27
-15 -60 -15 -72 0 -13 -4 -25 -9 -28 -5 -3 -11 -20 -13 -38 -6 -39 -27 -124
-39 -153 -4 -11 -10 -31 -12 -45 -7 -36 -28 -122 -37 -145 -4 -11 -16 -56 -26
-100 -10 -44 -24 -93 -30 -110 l-12 -29 -12 44 c-7 25 -16 54 -20 65 -5 11
-11 31 -13 45 -3 14 -12 52 -22 85 -31 111 -36 130 -46 175 -5 25 -14 53 -19
62 -6 10 -10 26 -10 36 0 10 -6 38 -14 63 -7 24 -19 64 -26 89 -7 25 -17 60
-22 78 l-10 34 -145 -4 c-112 -2 -147 -6 -151 -17z"/>
<path d="M1405 4830 c-22 -5 -55 -12 -72 -16 -18 -3 -33 -10 -33 -15 0 -5 -6
-9 -13 -9 -13 0 -23 -7 -74 -51 -53 -46 -97 -127 -116 -213 -12 -57 -15 -818
-3 -876 12 -59 40 -140 48 -140 4 0 8 -6 8 -13 0 -24 85 -102 140 -129 79 -38
119 -48 185 -48 130 0 277 82 327 181 33 68 47 105 53 149 14 87 17 731 5 815
-19 134 -56 216 -123 274 -51 44 -61 51 -74 51 -7 0 -13 5 -13 10 0 6 -9 10
-21 10 -11 0 -28 4 -37 9 -26 14 -142 20 -187 11z m110 -240 c33 -13 47 -26
68 -69 15 -30 17 -79 17 -443 0 -433 1 -424 -49 -480 -51 -58 -144 -41 -181
33 -19 36 -20 61 -20 449 0 360 2 415 16 443 35 67 87 90 149 67z"/>
<path d="M2600 4800 c-4 -8 -7 -261 -6 -562 l2 -547 -37 -43 c-43 -51 -117
-91 -151 -83 -13 3 -31 20 -41 36 -16 28 -17 78 -17 620 l0 589 -125 0 -125 0
0 -673 c0 -604 2 -677 16 -708 22 -46 64 -89 85 -89 10 0 21 -4 24 -10 3 -5
30 -10 60 -10 30 0 57 5 60 10 3 6 17 10 29 10 13 0 29 7 36 15 7 8 19 15 26
15 8 0 14 5 14 10 0 6 6 10 13 10 8 0 37 23 66 50 56 54 76 63 66 29 -4 -12
-4 -45 0 -75 l6 -54 125 0 124 0 0 734 0 735 -121 3 c-100 2 -122 0 -129 -12z"/>
<path d="M7958 4772 c-78 -2 -98 -6 -98 -17 0 -11 12 -15 45 -15 l45 0 0 -126
c0 -96 3 -125 13 -122 8 3 13 40 15 126 l3 122 44 0 c24 0 46 4 49 9 12 19
-23 26 -116 23z"/>
<path d="M8110 4636 c0 -74 4 -137 9 -140 20 -13 30 25 33 120 l3 99 14 -45
c7 -25 20 -59 27 -77 8 -17 14 -35 14 -40 0 -18 25 -63 36 -63 6 0 17 19 24
43 8 23 17 47 21 52 4 6 10 25 14 43 4 18 13 44 20 58 19 37 25 11 25 -103 0
-71 3 -94 13 -91 9 3 13 43 15 141 l3 137 -25 0 c-17 0 -28 -9 -40 -34 -9 -19
-16 -43 -16 -55 0 -12 -4 -21 -10 -21 -5 0 -10 -11 -10 -24 0 -14 -4 -28 -10
-31 -5 -3 -10 -15 -10 -26 0 -10 -7 -19 -15 -19 -9 0 -15 9 -15 25 0 14 -3 25
-8 25 -7 0 -18 34 -39 120 -7 30 -20 40 -50 40 -23 0 -23 -2 -23 -134z"/>
</g>
</svg>
